# xmcd
#
# Track frame offsets:
#  150
#  10130
#  22142
#  36190
#  48712
#  60825
#  71487
#  83897
#
# Disc length: 1290 seconds
#
# Revision: 0
# Processed by: cddbd v1.4PL0 Copyright (c) Steve Scherf et al.
# Submitted via: AltoMP3_Maker 3.0
#
DISCID=62050808
DTITLE=Various Artist - Risque Blues "Big 10-Inch"
DYEAR=1900
DGENRE=
TTITLE0=Big 10-Inch Record
TTITLE1=Shake 'Em Up Baby
TTITLE2=I Want My Fanny Brown
TTITLE3=Work With Me Annie
TTITLE4=Annie Had A Baby
TTITLE5=Smooth, Slow and Easy
TTITLE6=Sure Cure For The Blues
TTITLE7=Ring-A-Ding-Doo
EXTD=
EXTT0=
EXTT1=
EXTT2=
EXTT3=
EXTT4=
EXTT5=
EXTT6=
EXTT7=
PLAYORDER=
